<?xml version="1.0" standalone="no"?>
<!DOCTYPE svg PUBLIC "-//W3C//DTD SVG 20010904//EN"
 "http://www.w3.org/TR/2001/REC-SVG-20010904/DTD/svg10.dtd">
<svg version="1.0" xmlns="http://www.w3.org/2000/svg"
 width="563.000000pt" height="719.000000pt" viewBox="0 0 563.000000 719.000000"
 preserveAspectRatio="xMidYMid meet">

<g transform="translate(0.000000,719.000000) scale(0.100000,-0.100000)"
fill="#000000" stroke="none">
<path d="M5624 6850 c0 -190 2 -267 3 -172 2 94 2 250 0 345 -1 94 -3 17 -3
-173z"/>
<path d="M5621 6454 c0 -11 3 -14 6 -6 3 7 2 16 -1 19 -3 4 -6 -2 -5 -13z"/>
<path d="M576 5939 c-14 -34 -11 -63 4 -38 7 10 12 10 26 -2 16 -13 17 -11 10
21 -10 52 -23 59 -40 19z"/>
<path d="M632 5933 c2 -30 7 -38 23 -38 27 0 31 33 6 56 -28 27 -33 24 -29
-18z m33 -13 c3 -5 1 -10 -4 -10 -6 0 -11 5 -11 10 0 6 2 10 4 10 3 0 8 -4 11
-10z"/>
<path d="M740 5942 c0 -26 10 -52 20 -52 13 0 5 63 -8 68 -7 2 -12 -5 -12 -16z"/>
<path d="M930 5925 c0 -22 5 -35 13 -35 11 0 13 15 8 63 -1 4 -5 7 -11 7 -5 0
-10 -16 -10 -35z"/>
<path d="M970 5925 c0 -19 2 -35 4 -35 2 0 6 16 8 35 2 19 0 35 -4 35 -4 0 -8
-16 -8 -35z"/>
<path d="M1183 5949 c-11 -11 -5 -59 8 -59 5 0 9 8 10 18 0 9 2 25 4 35 4 19
-6 22 -22 6z"/>
<path d="M1427 5954 c-4 -4 -7 -23 -7 -43 1 -32 2 -34 14 -18 12 16 14 16 20
2 3 -9 10 -13 16 -10 13 8 13 65 0 65 -5 0 -10 -5 -10 -12 0 -6 -6 -4 -13 6
-7 9 -16 14 -20 10z"/>
<path d="M697 5942 c-11 -16 0 -47 17 -50 13 -3 16 2 13 24 -4 28 -21 43 -30
26z"/>
<path d="M808 5943 c-22 -3 -28 -10 -28 -29 0 -13 5 -24 10 -24 6 0 10 9 10
20 0 14 6 20 23 19 12 0 16 -3 10 -6 -21 -8 -15 -33 8 -33 16 0 20 5 17 27 -3
29 -9 32 -50 26z"/>
<path d="M1547 5943 c-3 -5 -4 -18 -2 -29 2 -10 4 -22 4 -26 1 -5 5 -8 10 -8
5 0 8 13 7 29 -1 32 -11 48 -19 34z"/>
<path d="M876 5931 c-9 -14 4 -41 19 -41 8 0 17 5 21 12 5 8 2 9 -9 5 -12 -4
-17 -1 -17 9 0 10 6 14 15 10 8 -3 15 -1 15 4 0 13 -37 13 -44 1z"/>
<path d="M994 5925 c-8 -20 4 -35 27 -35 14 0 19 7 19 25 0 18 -5 25 -20 25
-11 0 -23 -7 -26 -15z m36 -10 c0 -8 -4 -15 -10 -15 -5 0 -10 7 -10 15 0 8 5
15 10 15 6 0 10 -7 10 -15z"/>
<path d="M1050 5915 c0 -31 17 -33 23 -2 4 22 4 22 15 -3 l11 -25 0 28 c1 22
-3 27 -24 27 -20 0 -25 -5 -25 -25z"/>
<path d="M1115 5930 c-3 -6 2 -13 11 -17 16 -6 16 -7 -2 -14 -17 -7 -17 -8 4
-8 13 -1 22 5 22 14 0 8 -6 15 -12 15 -9 0 -8 4 2 10 13 8 13 10 -2 10 -9 0
-20 -5 -23 -10z"/>
<path d="M1220 5908 l0 -33 15 29 c18 35 18 36 0 36 -10 0 -15 -10 -15 -32z"/>
<path d="M1267 5933 c-12 -12 -7 -41 7 -46 19 -7 40 18 32 38 -6 15 -28 20
-39 8z m19 -30 c-10 -10 -19 5 -10 18 6 11 8 11 12 0 2 -7 1 -15 -2 -18z"/>
<path d="M1321 5913 c1 -17 3 -21 6 -10 2 9 8 17 13 17 5 0 11 -8 13 -17 4
-17 5 -17 6 0 1 24 21 21 21 -4 0 -11 4 -18 9 -15 5 4 8 14 6 24 -2 9 -4 20
-4 25 -1 4 -17 7 -36 7 -32 0 -35 -3 -34 -27z"/>
<path d="M1499 5938 c-11 -44 -8 -57 11 -55 16 1 20 7 18 26 -2 13 -9 26 -15
29 -7 2 -13 2 -14 0z"/>
<path d="M1582 5913 c2 -20 9 -29 26 -31 18 -3 22 1 22 22 0 32 -17 43 -23 14
l-4 -23 -2 23 c0 12 -6 22 -12 22 -6 0 -9 -12 -7 -27z"/>
<path d="M1640 5906 c0 -32 13 -27 24 10 4 15 2 21 -9 21 -10 0 -15 -10 -15
-31z"/>
<path d="M1684 5926 c-8 -22 2 -46 21 -46 18 0 20 16 3 23 -8 3 -5 6 5 6 10 1
17 7 15 14 -7 18 -37 21 -44 3z"/>
<path d="M570 5825 c0 -8 2 -15 4 -15 2 0 6 7 10 15 3 8 1 15 -4 15 -6 0 -10
-7 -10 -15z"/>
<path d="M596 5823 c-8 -9 3 -23 19 -23 20 0 25 26 5 27 -10 1 -21 -1 -24 -4z"/>
<path d="M658 5823 c7 -3 16 -2 19 1 4 3 -2 6 -13 5 -11 0 -14 -3 -6 -6z"/>
<path d="M692 5815 c-11 -13 -10 -15 7 -15 14 0 19 5 15 15 -7 18 -6 18 -22 0z"/>
<path d="M726 5817 c3 -10 9 -15 12 -12 3 3 0 11 -7 18 -10 9 -11 8 -5 -6z"/>
<path d="M760 5814 c0 -8 5 -12 10 -9 6 3 10 10 10 16 0 5 -4 9 -10 9 -5 0
-10 -7 -10 -16z"/>
<path d="M866 5816 c7 -18 13 -19 33 -7 9 6 10 11 2 15 -6 4 -11 2 -11 -5 0
-8 -4 -8 -15 1 -13 11 -14 10 -9 -4z"/>
<path d="M922 5810 c0 -14 2 -19 5 -12 2 6 2 18 0 25 -3 6 -5 1 -5 -13z"/>
<path d="M954 5819 c-4 -7 -3 -9 3 -6 6 4 13 0 17 -8 7 -20 26 -19 26 2 0 9
-3 13 -7 10 -3 -4 -12 -2 -19 4 -8 7 -14 6 -20 -2z"/>
<path d="M1270 5820 c13 -9 13 -11 1 -19 -10 -7 -7 -9 12 -8 14 1 23 5 20 10
-7 12 12 8 27 -5 12 -11 12 -10 0 5 -7 10 -19 16 -26 13 -7 -3 -16 -1 -19 4
-4 6 -12 10 -18 10 -7 0 -6 -4 3 -10z"/>
<path d="M1558 5823 c10 -4 10 -8 0 -21 -12 -14 -11 -14 10 -1 12 8 22 16 22
19 0 3 -10 6 -22 7 -13 0 -17 -1 -10 -4z"/>
<path d="M1613 5816 c-10 -11 -9 -15 2 -20 10 -4 15 1 15 14 0 23 -1 24 -17 6z"/>
<path d="M1056 5805 c-3 -8 -1 -15 4 -15 6 0 10 7 10 15 0 8 -2 15 -4 15 -2 0
-6 -7 -10 -15z"/>
<path d="M1150 5805 c0 -8 2 -15 4 -15 2 0 6 7 10 15 3 8 1 15 -4 15 -6 0 -10
-7 -10 -15z"/>
<path d="M1206 5805 c-3 -8 -1 -15 4 -15 6 0 10 7 10 15 0 8 -2 15 -4 15 -2 0
-6 -7 -10 -15z"/>
<path d="M1355 5810 c-10 -17 3 -26 17 -12 15 15 48 16 48 2 0 -5 4 -10 8 -10
5 0 9 6 9 13 0 17 -73 22 -82 7z"/>
<path d="M1455 5811 c-3 -5 0 -13 6 -17 8 -5 9 -3 4 6 -6 10 -4 12 8 7 9 -3
19 -2 22 3 4 6 -3 10 -14 10 -11 0 -22 -4 -26 -9z"/>
<path d="M575 5760 c-3 -6 1 -7 9 -4 18 7 21 14 7 14 -6 0 -13 -4 -16 -10z"/>
<path d="M598 5743 c-5 -7 -15 -10 -21 -6 -5 3 -7 2 -4 -4 7 -12 57 -9 66 4
11 15 31 13 31 -2 0 -8 5 -15 10 -15 7 0 8 6 1 17 -11 21 -67 25 -83 6z"/>
<path d="M696 5747 c3 -10 9 -15 12 -12 3 3 0 11 -7 18 -10 9 -11 8 -5 -6z"/>
<path d="M724 5739 c0 -12 4 -15 12 -9 6 6 14 7 17 4 10 -10 97 -13 97 -3 0 5
7 9 16 9 9 0 12 -5 8 -12 -4 -7 -3 -8 5 -4 17 11 5 23 -28 28 -19 3 -27 0 -24
-8 2 -7 -6 -11 -22 -11 -22 0 -24 2 -13 15 11 14 10 14 -6 5 -12 -6 -29 -8
-41 -3 -16 6 -21 4 -21 -11z"/>
<path d="M1156 5745 c-3 -8 -1 -15 4 -15 6 0 10 7 10 15 0 8 -2 15 -4 15 -2 0
-6 -7 -10 -15z"/>
<path d="M1340 5753 c0 -6 -13 -9 -28 -7 -20 2 -29 -1 -29 -12 0 -8 6 -13 13
-10 7 3 15 2 17 -2 2 -4 2 -1 1 6 -2 6 0 12 4 12 5 0 14 -6 21 -12 11 -10 13
-10 7 0 -9 14 10 17 19 2 7 -12 25 -4 25 12 0 5 -6 8 -14 5 -7 -3 -19 0 -25 6
-7 7 -11 8 -11 0z"/>
<path d="M1470 5740 c22 -19 46 -18 34 1 -3 5 -9 7 -14 4 -5 -3 -11 -1 -15 5
-3 5 -11 10 -17 10 -6 0 -1 -9 12 -20z"/>
<path d="M941 5734 c0 -11 3 -14 6 -6 3 7 2 16 -1 19 -3 4 -6 -2 -5 -13z"/>
<path d="M1036 5733 c-6 -14 -5 -15 5 -6 7 7 10 15 7 18 -3 3 -9 -2 -12 -12z"/>
<path d="M1110 5735 c0 -8 2 -15 4 -15 2 0 6 7 10 15 3 8 1 15 -4 15 -6 0 -10
-7 -10 -15z"/>
<path d="M1221 5734 c0 -11 3 -14 6 -6 3 7 2 16 -1 19 -3 4 -6 -2 -5 -13z"/>
<path d="M1401 5734 c0 -11 3 -14 6 -6 3 7 2 16 -1 19 -3 4 -6 -2 -5 -13z"/>
<path d="M1543 5737 c-3 -5 -2 -11 1 -14 3 -4 6 -1 6 6 0 7 4 9 10 6 5 -3 18
-2 27 4 14 7 12 9 -11 8 -15 -1 -30 -6 -33 -10z"/>
<path d="M1615 5739 c-4 -6 -5 -12 -2 -15 2 -3 7 2 10 11 7 17 1 20 -8 4z"/>
<path d="M1645 5741 c-8 -7 -6 -21 3 -21 5 0 16 6 26 13 16 12 16 13 -4 13
-11 0 -23 -2 -25 -5z"/>
<path d="M1789 5733 c-13 -16 -12 -17 4 -4 9 7 17 15 17 17 0 8 -8 3 -21 -13z"/>
<path d="M980 5730 c0 -5 5 -10 11 -10 5 0 7 5 4 10 -3 6 -8 10 -11 10 -2 0
-4 -4 -4 -10z"/>
<path d="M1745 5730 c-3 -5 -1 -10 4 -10 6 0 11 5 11 10 0 6 -2 10 -4 10 -3 0
-8 -4 -11 -10z"/>
<path d="M570 5681 c0 -5 7 -11 15 -15 8 -3 15 -1 15 3 0 5 -7 11 -15 15 -8 3
-15 1 -15 -3z"/>
<path d="M851 5682 c-1 -8 -9 -10 -27 -6 -17 4 -25 3 -21 -3 8 -12 62 -11 74
1 4 5 3 6 -4 3 -6 -4 -14 -1 -16 5 -4 10 -6 10 -6 0z"/>
<path d="M1093 5670 c-11 -16 -10 -18 2 -14 8 4 15 12 15 20 0 19 -3 18 -17
-6z"/>
<path d="M610 5672 c0 -5 7 -9 15 -9 8 0 12 4 9 9 -3 4 -9 8 -15 8 -5 0 -9 -4
-9 -8z"/>
<path d="M675 5670 c3 -5 8 -10 11 -10 2 0 4 5 4 10 0 6 -5 10 -11 10 -5 0 -7
-4 -4 -10z"/>
<path d="M705 5670 c-3 -5 0 -12 6 -16 8 -4 9 -3 5 4 -4 7 -3 12 3 12 5 0 11
-5 13 -12 3 -8 6 -7 10 3 6 16 -27 25 -37 9z"/>
<path d="M760 5665 c0 -8 2 -15 4 -15 2 0 6 7 10 15 3 8 1 15 -4 15 -6 0 -10
-7 -10 -15z"/>
<path d="M920 5671 c0 -5 -8 -12 -17 -14 -14 -4 -12 -5 5 -6 13 -1 22 5 22 14
0 8 -2 15 -5 15 -3 0 -5 -4 -5 -9z"/>
<path d="M950 5669 c0 -5 5 -7 10 -4 6 3 10 8 10 11 0 2 -4 4 -10 4 -5 0 -10
-5 -10 -11z"/>
<path d="M1001 5677 c2 -1 13 -9 24 -17 19 -14 19 -14 6 3 -7 9 -18 17 -24 17
-6 0 -8 -1 -6 -3z"/>
<path d="M1220 5664 c0 -8 5 -12 10 -9 6 4 8 11 5 16 -9 14 -15 11 -15 -7z"/>
<path d="M1315 5670 c-3 -6 1 -7 9 -4 18 7 21 14 7 14 -6 0 -13 -4 -16 -10z"/>
<path d="M1517 5664 c6 -15 23 -19 23 -5 0 5 -7 11 -14 14 -10 4 -13 1 -9 -9z"/>
<path d="M1615 5672 c-32 -7 -41 -22 -9 -16 16 3 31 7 33 10 8 7 -3 10 -24 6z"/>
<path d="M1674 5669 c-3 -6 -2 -15 3 -20 5 -5 9 -1 9 11 0 23 -2 24 -12 9z"/>
<path d="M1818 5669 c-10 -5 -18 -15 -18 -21 0 -6 8 -4 18 5 15 13 21 14 32 4
12 -10 12 -9 1 6 -7 9 -14 17 -15 17 0 0 -9 -5 -18 -11z"/>
<path d="M1700 5662 c0 -4 9 -8 20 -8 11 0 20 4 20 8 0 4 -9 8 -20 8 -11 0
-20 -4 -20 -8z"/>
<path d="M765 5168 c-4 -14 -4 -114 -1 -224 3 -109 5 -317 5 -461 1 -227 3
-263 16 -263 8 0 15 -9 15 -19 0 -11 4 -22 10 -26 5 -3 7 -11 5 -18 -14 -37 5
-39 306 -43 162 -2 405 -6 542 -8 207 -3 247 -1 247 11 0 7 9 31 20 53 19 38
20 59 20 512 0 260 -4 479 -9 486 -6 11 -126 14 -589 19 l-581 6 -6 -25z
m1131 -30 c6 -7 13 -860 7 -885 l-5 -22 -222 4 c-121 3 -368 8 -548 11 l-328
6 0 451 0 450 546 -6 c300 -3 548 -7 550 -9z"/>
<path d="M967 4913 c1 -48 2 -123 2 -166 1 -49 5 -76 11 -72 6 3 10 2 10 -4 0
-5 -4 -12 -8 -15 -4 -2 -9 -59 -11 -126 l-2 -121 28 3 c19 2 28 8 27 20 -1 10
7 20 18 24 28 9 34 -3 13 -26 -18 -20 -18 -20 43 -20 34 0 65 0 70 0 4 0 7 6
7 12 0 7 8 14 19 16 12 3 16 0 11 -8 -15 -24 24 -29 240 -30 121 -1 236 -2
255 -3 l35 -2 2 285 c1 157 -1 291 -5 297 -7 11 -422 24 -422 13 0 -4 5 -11
11 -17 9 -9 7 -10 -10 -6 -13 3 -21 1 -21 -8 0 -7 -3 -10 -6 -7 -3 4 -1 15 5
26 10 19 5 19 -157 21 l-167 2 2 -88z m243 57 c0 -5 -4 -10 -10 -10 -5 0 -10
5 -10 10 0 6 5 10 10 10 6 0 10 -4 10 -10z m210 -16 c0 -8 -6 -11 -15 -8 -8 4
-15 2 -15 -3 0 -5 -14 -7 -31 -5 -22 3 -27 7 -18 13 8 5 10 9 4 10 -5 1 4 4
20 8 36 9 55 4 55 -15z m220 1 c0 -2 -7 -5 -15 -9 -9 -3 -15 0 -15 9 0 9 6 12
15 9 8 -4 15 -7 15 -9z m-44 -20 c1 -9 -4 -11 -14 -7 -10 4 -12 7 -4 10 7 2 9
9 5 15 -3 7 -2 8 2 4 5 -4 10 -14 11 -22z m66 -56 c-21 -8 -30 10 -11 22 8 5
16 3 21 -4 4 -7 0 -15 -10 -18z m-600 -2 c-12 -7 -19 -17 -15 -22 4 -4 3 -5
-4 -1 -6 3 -15 0 -20 -8 -7 -12 -10 -12 -21 0 -11 12 -9 16 10 23 13 4 30 11
38 14 28 10 35 6 12 -6z m408 -27 c10 0 25 -11 34 -25 14 -21 14 -24 1 -19 -8
4 -15 9 -15 13 0 4 -12 13 -26 20 -22 10 -26 9 -21 -3 4 -10 1 -13 -8 -9 -12
4 -12 9 -3 26 7 14 13 17 16 9 2 -6 12 -12 22 -12z m170 -10 c0 -5 -5 -10 -11
-10 -5 0 -7 5 -4 10 3 6 8 10 11 10 2 0 4 -4 4 -10z m-43 -16 c-3 -3 -12 -4
-19 -1 -8 3 -5 6 6 6 11 1 17 -2 13 -5z m-27 -54 c-8 -5 -19 -10 -25 -10 -5 0
-3 5 5 10 8 5 20 10 25 10 6 0 3 -5 -5 -10z m-470 -79 c0 -11 -58 -61 -70 -61
-5 0 -12 6 -16 13 -4 6 -4 9 1 5 11 -10 45 10 45 27 0 12 13 22 33 24 4 1 7
-3 7 -8z m380 -1 c0 -5 -5 -10 -11 -10 -5 0 -7 5 -4 10 3 6 8 10 11 10 2 0 4
-4 4 -10z m-120 -35 c0 -8 -4 -14 -9 -12 -5 1 -16 -7 -24 -17 -8 -11 -19 -16
-26 -12 -16 10 6 49 24 42 8 -3 17 -1 20 4 9 14 15 12 15 -5z m143 -21 c-7
-19 -10 -18 -16 5 -3 13 -1 18 9 14 7 -2 10 -11 7 -19z m104 -10 c-2 -2 -12
-2 -21 2 -13 5 -14 9 -5 21 11 12 14 12 22 -2 5 -9 7 -19 4 -21z m-427 14 c0
6 8 12 18 12 15 -1 15 -2 -2 -15 -26 -20 -36 -19 -36 3 0 14 2 15 10 2 6 -10
10 -11 10 -2z m264 -12 c-10 -8 -21 -12 -24 -9 -3 2 4 11 14 19 11 7 22 12 25
9 2 -3 -4 -12 -15 -19z m-178 -8 c4 -7 4 -10 0 -7 -4 4 -18 -4 -31 -17 -13
-13 -30 -24 -37 -24 -7 0 3 14 22 30 41 35 37 33 46 18z m397 -53 c4 -8 1 -17
-5 -21 -7 -4 -8 -3 -4 4 4 7 2 12 -4 12 -6 0 -8 5 -5 10 8 14 12 13 18 -5z
m-423 -5 c0 -5 -4 -10 -10 -10 -5 0 -10 5 -10 10 0 6 5 10 10 10 6 0 10 -4 10
-10z m452 -12 c-7 -7 -12 -8 -12 -2 0 14 12 26 19 19 2 -3 -1 -11 -7 -17z
m-482 -43 c0 -16 -6 -25 -15 -25 -8 0 -15 -7 -15 -15 0 -20 -14 -19 -31 2 -12
15 -12 16 4 10 12 -4 20 -1 24 11 7 18 23 42 29 42 2 0 4 -11 4 -25z m433 -26
c-7 -7 -13 -7 -17 0 -4 5 -14 7 -23 4 -12 -5 -12 -2 3 15 16 19 20 20 33 7 11
-11 12 -18 4 -26z m-229 23 c2 -4 -4 -8 -14 -8 -10 0 -16 4 -14 8 3 4 9 8 14
8 5 0 11 -4 14 -8z m76 -38 c0 -2 -7 -4 -15 -4 -8 0 -15 4 -15 10 0 5 7 7 15
4 8 -4 15 -8 15 -10z m106 -31 c-2 -3 -17 -6 -32 -8 -25 -2 -26 -1 -10 10 16
12 54 10 42 -2z"/>
<path d="M1620 4500 c0 -5 5 -10 11 -10 5 0 7 5 4 10 -3 6 -8 10 -11 10 -2 0
-4 -4 -4 -10z"/>
<path d="M3345 5053 c-9 -8 -14 -131 -19 -435 -7 -407 -7 -425 12 -473 l20
-50 490 -3 491 -2 12 41 c7 22 20 46 29 52 15 11 18 62 29 440 7 236 11 430 9
432 -2 2 -242 5 -533 7 -397 2 -532 0 -540 -9z m203 -30 c-26 -2 -71 -2 -100
0 -29 2 -8 3 47 3 55 0 79 -1 53 -3z m105 0 c-7 -2 -19 -2 -25 0 -7 3 -2 5 12
5 14 0 19 -2 13 -5z m300 0 c-51 -2 -136 -2 -190 0 -54 1 -12 3 92 3 105 0
149 -2 98 -3z m164 1 c-3 -3 -12 -4 -19 -1 -8 3 -5 6 6 6 11 1 17 -2 13 -5z
m196 -1 c-35 -2 -91 -2 -125 0 -35 2 -7 3 62 3 69 0 97 -1 63 -3z m74 -26 c2
-3 0 -152 -6 -331 -6 -180 -11 -353 -11 -386 l0 -60 -511 0 -512 0 7 218 c3
119 7 294 8 387 1 94 3 174 6 178 4 9 1010 2 1019 -6z"/>
<path d="M3627 4973 c-15 -14 -5 -23 25 -23 30 0 31 1 12 15 -22 16 -28 18
-37 8z"/>
<path d="M4076 4965 c-4 -11 2 -15 24 -15 22 0 28 4 24 15 -4 8 -14 15 -24 15
-10 0 -20 -7 -24 -15z"/>
<path d="M3504 4933 c-40 -5 -38 7 -43 -328 -1 -143 -5 -263 -8 -267 -2 -5 4
-8 14 -8 107 -2 797 1 799 3 1 1 4 135 8 298 5 237 4 298 -6 302 -15 5 -716 5
-764 0z m206 -31 c0 -15 -2 -15 -10 -2 -13 20 -13 33 0 25 6 -3 10 -14 10 -23z
m90 8 c-6 -11 -15 -20 -20 -20 -14 0 -12 6 6 24 21 22 27 20 14 -4z m-236 -6
c3 -8 2 -12 -4 -9 -6 3 -10 10 -10 16 0 14 7 11 14 -7z m39 1 c-3 -9 -8 -14
-10 -11 -3 3 -2 9 2 15 9 16 15 13 8 -4z m40 3 c-11 -18 -11 -31 0 -46 8 -10
15 -9 34 3 24 16 24 16 13 -5 -16 -29 -5 -37 20 -15 11 10 20 13 20 7 0 -6
-13 -18 -29 -28 -15 -9 -36 -34 -46 -56 -9 -22 -23 -42 -31 -45 -8 -3 -14 -11
-14 -18 0 -15 -39 -65 -40 -50 0 6 11 29 24 52 25 44 40 133 22 133 -6 0 -6 4
1 11 6 6 9 18 6 25 -7 18 3 44 17 44 7 0 8 -5 3 -12z m37 -13 c0 -14 -4 -25
-10 -25 -5 0 -10 11 -10 25 0 14 5 25 10 25 6 0 10 -11 10 -25z m80 15 c0 -5
-5 -10 -11 -10 -5 0 -7 5 -4 10 3 6 8 10 11 10 2 0 4 -4 4 -10z m142 -22 c-16
-32 -42 -65 -42 -53 0 20 43 84 57 85 1 0 -6 -15 -15 -32z m52 24 c-6 -4 -14
-16 -17 -26 -4 -10 -10 -16 -13 -13 -9 8 15 47 29 47 8 0 9 -3 1 -8z m260 -8
c12 -31 5 -39 -13 -15 -10 13 -23 21 -30 17 -6 -4 -11 -2 -11 3 0 17 47 13 54
-5z m29 4 c4 -10 8 -9 16 2 9 13 11 12 11 -3 0 -13 -6 -17 -22 -15 -21 3 -39
28 -20 28 6 0 13 -6 15 -12z m-423 -12 c0 -2 -8 -10 -17 -17 -16 -13 -17 -12
-4 4 13 16 21 21 21 13z m-315 -16 c-3 -5 -11 -10 -16 -10 -6 0 -7 5 -4 10 3
6 11 10 16 10 6 0 7 -4 4 -10z m485 6 c0 -3 -4 -8 -10 -11 -5 -3 -10 -1 -10 4
0 6 5 11 10 11 6 0 10 -2 10 -4z m-158 -28 c-7 -7 -12 -20 -12 -29 0 -9 -6
-19 -14 -22 -10 -4 -8 5 7 34 11 21 23 36 26 34 2 -3 -1 -11 -7 -17z m438 12
c0 -5 -2 -10 -4 -10 -3 0 -8 5 -11 10 -3 6 -1 10 4 10 6 0 11 -4 11 -10z
m-720 -29 c-4 -16 -13 -38 -20 -48 -9 -15 -10 -15 -4 7 10 39 23 70 28 70 3 0
1 -13 -4 -29z m400 25 c0 -2 -8 -10 -17 -17 -16 -13 -17 -12 -4 4 13 16 21 21
21 13z m-156 -15 c3 -4 -4 -17 -17 -27 -22 -19 -22 -19 -4 2 9 11 14 24 10 27
-3 4 -4 7 0 7 3 0 8 -4 11 -9z m-48 -56 c-3 -8 -10 -15 -15 -15 -5 0 -4 11 2
25 12 25 23 16 13 -10z m184 31 c0 -2 -8 -10 -17 -17 -16 -13 -17 -12 -4 4 13
16 21 21 21 13z m16 -38 c-9 -12 -16 -17 -16 -10 0 14 23 42 29 37 1 -2 -4
-14 -13 -27z m106 10 c-7 -7 -12 -8 -12 -2 0 6 3 14 7 17 3 4 9 5 12 2 2 -3
-1 -11 -7 -17z m-219 -5 c-4 -11 -3 -14 5 -9 7 4 12 2 12 -3 0 -6 -4 -11 -9
-11 -14 0 -23 18 -16 30 10 16 15 12 8 -7z m-263 -7 c0 -8 -5 -18 -12 -22 -7
-4 -8 -3 -4 4 4 7 2 12 -4 12 -6 0 -8 5 -5 10 9 15 25 12 25 -4z m320 3 c0
-17 -13 -39 -20 -34 -10 6 -63 -55 -55 -64 4 -3 15 5 26 19 18 22 19 22 10 3
-6 -12 -19 -28 -29 -35 -10 -7 -24 -28 -31 -46 -8 -18 -15 -31 -17 -29 -3 2 3
21 12 43 11 27 15 55 11 91 -5 49 -5 51 12 35 10 -9 16 -20 14 -24 -2 -5 -1
-8 3 -8 11 0 44 42 39 50 -2 3 2 7 10 7 8 0 15 -4 15 -8z m287 -11 c-3 -8 -6
-5 -6 6 -1 11 2 17 5 13 3 -3 4 -12 1 -19z m80 -28 c1 -22 -2 -42 -8 -45 -10
-7 -12 44 -3 69 9 23 10 21 11 -24z m-566 7 c-10 -9 -11 -8 -5 6 3 10 9 15 12
12 3 -3 0 -11 -7 -18z m-101 9 c0 -2 -8 -10 -17 -17 -16 -13 -17 -12 -4 4 13
16 21 21 21 13z m380 0 c0 -2 -8 -10 -17 -17 -16 -13 -17 -12 -4 4 13 16 21
21 21 13z m111 -49 c-10 -9 -11 -8 -5 6 3 10 9 15 12 12 3 -3 0 -11 -7 -18z
m106 1 c-3 -8 -6 -5 -6 6 -1 11 2 17 5 13 3 -3 4 -12 1 -19z m-536 -5 c-26
-53 -32 -72 -27 -98 2 -17 5 -30 6 -30 1 0 3 -11 5 -25 2 -14 1 -19 -1 -12 -3
6 -9 10 -14 7 -14 -9 -5 142 9 159 18 22 33 20 22 -1z m119 3 c0 -8 -9 -24
-20 -37 l-20 -24 17 37 c20 41 23 45 23 24z m-269 -20 c-7 -8 -10 -20 -6 -25
3 -6 2 -18 -3 -28 -8 -13 -9 -10 -8 13 3 34 16 67 24 60 3 -3 -1 -12 -7 -20z
m401 -8 c-7 -7 -12 -8 -12 -2 0 6 3 14 7 17 3 4 9 5 12 2 2 -3 -1 -11 -7 -17z
m65 0 c-3 -8 -6 -5 -6 6 -1 11 2 17 5 13 3 -3 4 -12 1 -19z m260 -40 c-2 -13
-4 -3 -4 22 0 25 2 35 4 23 2 -13 2 -33 0 -45z m-668 -21 c-5 -7 -23 -28 -40
-47 -18 -21 -29 -44 -28 -60 4 -52 -1 -86 -10 -71 -19 30 -6 105 27 150 19 26
32 56 32 75 l1 31 14 -33 c10 -23 11 -37 4 -45z m322 20 c-10 -9 -11 -8 -5 6
3 10 9 15 12 12 3 -3 0 -11 -7 -18z m371 1 c-7 -7 -12 -8 -12 -2 0 6 3 14 7
17 3 4 9 5 12 2 2 -3 -1 -11 -7 -17z m-582 -2 c0 -3 -4 -8 -10 -11 -5 -3 -10
-1 -10 4 0 6 5 11 10 11 6 0 10 -2 10 -4z m60 1 c0 -2 -12 -14 -26 -28 l-27
-24 18 28 c14 22 35 36 35 24z m97 -29 c-3 -7 -5 -2 -5 12 0 14 2 19 5 13 2
-7 2 -19 0 -25z m303 12 c-6 -11 -13 -20 -16 -20 -2 0 0 9 6 20 6 11 13 20 16
20 2 0 0 -9 -6 -20z m-398 -30 c-12 -21 -18 -25 -20 -14 -3 12 21 41 35 44 1
0 -6 -13 -15 -30z m-161 -7 c-12 -20 -14 -14 -5 12 4 9 9 14 11 11 3 -2 0 -13
-6 -23z m25 -40 c-11 -11 -17 4 -9 23 7 18 8 18 11 1 2 -10 1 -21 -2 -24z
m511 15 c-3 -8 -6 -5 -6 6 -1 11 2 17 5 13 3 -3 4 -12 1 -19z m124 -1 c-10 -9
-11 -8 -5 6 3 10 9 15 12 12 3 -3 0 -11 -7 -18z m-696 -24 c-9 -25 -11 -116
-1 -131 4 -6 2 -12 -3 -12 -6 0 -11 -11 -11 -25 0 -20 -5 -25 -26 -25 -25 0
-26 2 -21 37 4 20 12 40 19 44 8 5 13 27 13 54 0 25 3 45 7 45 4 0 10 9 13 21
4 11 9 18 12 15 3 -3 2 -13 -2 -23z m158 -15 c-22 -24 -30 -14 -13 17 10 18
16 22 21 13 5 -7 1 -20 -8 -30z m-103 -4 c0 -2 -11 -3 -24 -2 -14 1 -23 5 -20
9 4 7 44 0 44 -7z m357 -16 c-3 -8 -6 -5 -6 6 -1 11 2 17 5 13 3 -3 4 -12 1
-19z m193 7 c-14 -17 -30 -20 -30 -6 0 5 8 12 18 14 9 3 19 5 21 6 2 0 -2 -6
-9 -14z m-88 -17 c-7 -7 -12 -8 -12 -2 0 6 3 14 7 17 3 4 9 5 12 2 2 -3 -1
-11 -7 -17z m-480 -8 c5 22 5 23 7 3 0 -12 -9 -32 -21 -45 -13 -13 -18 -17
-11 -8 6 8 10 29 7 45 -3 28 -3 28 5 5 l8 -25 5 25z m18 -74 c-32 -68 -47 -88
-30 -38 16 42 53 113 57 108 2 -2 -10 -33 -27 -70z m101 37 c-8 -15 -10 -15
-11 -2 0 17 10 32 18 25 2 -3 -1 -13 -7 -23z m259 17 c0 -5 -2 -10 -4 -10 -3
0 -8 5 -11 10 -3 6 -1 10 4 10 6 0 11 -4 11 -10z m-308 -35 c-2 -14 -8 -25
-12 -25 -4 0 -5 11 -2 25 2 14 8 25 12 25 4 0 5 -11 2 -25z m118 5 c0 -5 -5
-10 -11 -10 -5 0 -7 5 -4 10 3 6 8 10 11 10 2 0 4 -4 4 -10z m287 -22 c-3 -7
-5 -2 -5 12 0 14 2 19 5 13 2 -7 2 -19 0 -25z m-379 -8 c-14 -22 -24 -19 -15
5 4 8 11 15 17 15 6 0 6 -7 -2 -20z m339 -22 c-3 -8 -6 -5 -6 6 -1 11 2 17 5
13 3 -3 4 -12 1 -19z"/>
<path d="M3638 4817 c5 -30 5 -30 13 -9 5 13 13 21 19 17 5 -3 7 0 5 7 -3 8
-14 14 -23 15 -15 1 -17 -4 -14 -30z"/>
<path d="M2130 4622 c0 -255 4 -413 10 -417 5 -3 12 -28 16 -54 l6 -49 262 -3
c226 -4 713 3 664 9 -10 1 -18 7 -18 12 0 6 8 10 18 10 14 0 15 2 2 10 -8 5
-10 10 -4 10 28 0 33 59 40 460 l7 410 -194 0 c-107 0 -332 3 -501 7 l-308 6
0 -411z m167 372 c-3 -3 -12 -4 -19 -1 -8 3 -5 6 6 6 11 1 17 -2 13 -5z m100
-10 c-3 -3 -12 -4 -19 -1 -8 3 -5 6 6 6 11 1 17 -2 13 -5z m160 0 c-3 -3 -12
-4 -19 -1 -8 3 -5 6 6 6 11 1 17 -2 13 -5z m146 -1 c-13 -2 -33 -2 -45 0 -13
2 -3 4 22 4 25 0 35 -2 23 -4z m155 0 c-15 -2 -42 -2 -60 0 -18 2 -6 4 27 4
33 0 48 -2 33 -4z m129 1 c-3 -3 -12 -4 -19 -1 -8 3 -5 6 6 6 11 1 17 -2 13
-5z m91 -24 l22 0 0 -287 c0 -159 -3 -325 -7 -370 l-6 -83 -126 0 c-69 0 -278
3 -463 7 l-338 6 0 370 0 370 448 -6 c246 -4 457 -7 470 -7z"/>
<path d="M2233 4903 c-15 -29 -6 -435 9 -445 10 -6 10 -8 1 -8 -9 0 -13 -22
-13 -78 l0 -79 173 -6 c233 -9 638 -7 607 3 -24 8 -24 8 -2 9 21 1 22 4 23
104 0 56 3 193 5 305 l5 202 -58 0 c-32 1 -212 3 -400 6 -325 6 -342 5 -350
-13z m25 -28 c-3 -3 -9 2 -12 12 -6 14 -5 15 5 6 7 -7 10 -15 7 -18z m-3 -25
c3 -5 1 -10 -4 -10 -6 0 -11 5 -11 10 0 6 2 10 4 10 3 0 8 -4 11 -10z m685
-10 c10 -18 8 -20 -17 -19 -25 0 -26 1 -8 9 17 7 17 9 3 9 -22 1 -24 21 -3 21
8 0 19 -9 25 -20z m-135 -24 c17 -17 7 -30 -12 -15 -13 12 -18 29 -7 29 3 0
12 -6 19 -14z m167 -28 c-9 -9 -15 -9 -24 1 -11 11 -10 13 5 8 10 -4 17 -2 17
5 0 6 3 8 7 5 4 -4 1 -13 -5 -19z m-632 -17 c0 -3 -14 -7 -30 -7 -24 -1 -28 1
-20 11 10 12 50 9 50 -4z m-62 -18 c15 -10 30 -22 33 -27 4 -5 11 -6 17 -2 5
3 16 -2 23 -12 11 -14 11 -15 0 -5 -7 6 -19 9 -26 7 -7 -3 -16 -1 -20 5 -3 6
-11 11 -17 11 -15 0 22 -41 47 -51 l20 -8 -20 -1 c-94 -6 -93 -7 -91 23 1 23
3 25 12 12 6 -8 19 -15 29 -15 17 0 17 1 -1 21 -10 12 -19 24 -19 28 0 3 -6 5
-12 5 -7 -1 -13 4 -13 12 0 18 5 18 38 -3z m128 -35 l29 -33 -35 30 c-19 17
-37 31 -39 33 -2 1 0 2 5 2 6 0 23 -15 40 -32z m579 -28 c3 -6 -1 -7 -9 -4
-18 7 -21 14 -7 14 6 0 13 -4 16 -10z m-625 -200 c-8 -5 -24 -9 -35 -9 l-20 0
20 9 c11 5 27 9 35 9 13 1 13 0 0 -9z m650 -170 c-24 -15 -37 -11 -16 5 11 8
22 12 25 9 3 -3 -1 -9 -9 -14z"/>
<path d="M772 3594 c2 -390 6 -499 16 -500 6 -1 17 -2 23 -3 5 0 7 -5 4 -11
-3 -5 1 -10 10 -10 9 0 14 -3 12 -7 -6 -11 26 -38 48 -41 56 -8 69 -13 54 -23
-12 -7 -11 -9 4 -9 9 0 17 4 17 8 0 5 65 9 145 10 95 0 145 -3 145 -10 0 -6
-16 -8 -42 -4 -24 3 -65 2 -93 -3 -36 -6 15 -9 175 -9 124 0 219 2 212 5 -8 3
3 20 33 50 l45 46 0 498 0 499 -142 0 c-79 0 -261 3 -406 7 l-262 6 2 -499z
m221 459 c-29 -2 -78 -2 -110 0 -32 2 -8 3 52 3 61 0 87 -1 58 -3z m124 -9
c-3 -3 -12 -4 -19 -1 -8 3 -5 6 6 6 11 1 17 -2 13 -5z m341 -1 c-32 -2 -86 -2
-120 0 -35 2 -9 3 57 3 66 0 94 -1 63 -3z m-55 -23 l137 0 0 -457 0 -456 -262
6 c-145 4 -311 7 -370 7 l-108 0 0 457 0 456 233 -6 c127 -4 294 -7 370 -7z"/>
<path d="M987 3933 c-2 -32 -8 -68 -12 -80 -5 -16 -1 -26 14 -39 12 -10 21
-29 21 -41 0 -20 4 -22 25 -17 16 4 25 2 25 -6 0 -6 5 -8 10 -5 6 3 10 3 10
-2 0 -4 12 -9 27 -10 19 -1 22 1 12 8 -10 6 -10 9 -1 9 6 0 12 6 12 14 0 8 4
17 8 20 4 2 4 -24 -2 -59 -8 -58 -7 -65 14 -92 22 -28 22 -28 16 -3 -7 24 -6
24 8 6 9 -11 16 -31 16 -45 0 -20 3 -23 9 -11 6 8 7 18 5 22 -3 4 -3 8 1 8 3
0 10 -12 16 -27 8 -22 12 -24 19 -13 8 12 10 11 11 -5 1 -11 0 -27 -1 -34 -1
-12 1 -13 13 -3 12 10 13 18 4 43 -7 18 -17 27 -25 24 -7 -2 -10 -1 -7 5 3 5
-3 14 -14 20 -13 6 -18 16 -14 26 5 13 -1 15 -28 12 -29 -2 -34 0 -37 20 -5
31 24 39 64 17 31 -16 51 -45 22 -30 -7 4 -4 -1 6 -9 11 -9 27 -16 35 -15 12
0 10 3 -4 9 -16 7 -17 9 -3 9 9 1 20 -4 23 -9 5 -9 41 -5 52 5 6 4 -19 121
-28 130 -29 29 15 71 69 66 18 -2 26 5 35 28 6 17 15 31 19 31 4 0 11 1 15 3
4 1 11 -11 14 -28 5 -22 7 -14 8 31 l1 61 -142 6 c-79 4 -186 7 -240 7 l-96 0
-5 -57z m207 -188 c-4 -8 -11 -15 -16 -15 -6 0 -5 6 2 15 7 8 14 15 16 15 2 0
1 -7 -2 -15z"/>
<path d="M1069 3673 c-24 -6 -52 -93 -29 -93 6 0 10 9 10 20 0 12 11 32 25 45
26 23 24 35 -6 28z"/>
<path d="M880 3462 l0 -109 28 5 c15 2 34 10 42 17 22 17 52 28 73 26 14 -2
16 3 12 22 -4 15 -1 28 9 36 22 18 20 30 -3 24 -26 -7 -62 14 -55 32 4 9 0 15
-7 16 -30 1 -51 8 -75 23 l-24 16 0 -108z"/>
<path d="M1460 3536 c0 -19 -7 -25 -33 -30 -34 -6 -70 -39 -89 -81 -11 -24
-44 -42 -88 -47 -17 -2 -25 -9 -25 -23 0 -22 -42 -33 -73 -19 -41 18 -54 15
-48 -9 7 -28 -12 -47 -64 -67 -43 -16 -60 -30 -37 -30 35 0 16 -20 -20 -21
-35 -2 -35 -2 12 -9 28 -5 146 -9 263 -9 l212 -1 0 185 c0 102 -2 185 -5 185
-3 0 -5 -11 -5 -24z"/>
<path d="M1072 3524 c-13 -24 16 -51 50 -46 l28 4 -31 29 c-36 34 -35 34 -47
13z"/>
<path d="M1000 3520 c0 -5 6 -10 14 -10 8 0 18 5 21 10 3 6 -3 10 -14 10 -12
0 -21 -4 -21 -10z"/>
<path d="M1107 3463 c-3 -3 1 -16 9 -28 10 -16 12 -25 5 -30 -6 -3 -11 -12
-11 -18 1 -15 40 31 40 47 0 13 -35 37 -43 29z"/>
<path d="M1770 3732 c0 -312 2 -344 18 -361 9 -10 25 -29 34 -41 17 -23 21
-23 265 -27 237 -4 288 -11 253 -33 -11 -7 -5 -10 24 -10 31 0 37 3 32 16 -5
14 -1 16 25 10 17 -3 48 -7 68 -8 35 -1 35 -1 -9 -8 -34 -5 -17 -7 65 -8 121
-2 108 -8 172 73 l32 40 2 338 c1 185 0 340 -3 342 -3 3 -224 8 -491 12 l-487
6 0 -341z m815 298 c81 -4 -40 -6 -285 -3 -234 3 -427 7 -429 9 -7 7 569 2
714 -6z m-37 -21 l172 -1 0 -311 0 -310 -277 6 c-153 4 -360 7 -460 7 l-183 0
0 304 c0 282 1 305 18 309 9 2 139 3 287 1 149 -1 348 -4 443 -5z"/>
<path d="M1877 3935 c-6 -35 5 -80 21 -81 6 -1 21 -2 32 -2 11 -1 20 -6 20
-11 0 -5 -8 -7 -19 -4 -10 3 -22 0 -25 -6 -5 -7 0 -9 11 -5 15 5 16 4 3 -5
-21 -15 -30 -14 -30 7 -1 15 -2 15 -10 1 -5 -9 -8 -45 -5 -80 2 -35 4 -77 5
-94 1 -16 4 -24 7 -17 7 17 20 15 27 -4 3 -8 2 -13 -3 -9 -5 3 -16 2 -25 -1
-13 -5 -16 -21 -16 -75 l0 -69 123 0 c68 0 246 -3 395 -7 l271 -6 0 56 c-1 53
-3 57 -24 57 -24 0 -51 10 -95 35 l-25 15 37 0 c20 0 39 -4 42 -8 3 -5 19 -7
36 -4 24 3 30 9 30 28 0 14 -7 27 -15 30 -8 4 -12 10 -9 15 3 5 10 7 15 4 5
-4 9 46 9 124 l0 130 -66 0 c-47 -1 -64 -4 -61 -13 10 -25 -17 -43 -70 -48 -7
-1 -13 -5 -13 -10 0 -5 -10 -6 -22 -3 -16 4 -19 3 -10 -3 11 -7 11 -10 -3 -15
-9 -4 -18 -1 -21 8 -4 8 -10 12 -15 9 -15 -9 -48 6 -54 25 -3 10 -11 18 -18
18 -37 -1 -49 4 -43 18 4 12 -6 15 -57 15 -38 0 -57 -4 -48 -9 10 -7 10 -10 1
-16 -8 -5 -16 -1 -22 9 -6 10 -22 16 -46 16 -26 0 -33 -3 -23 -9 8 -5 16 -18
17 -28 2 -16 1 -16 -9 -2 -7 9 -18 14 -26 11 -8 -3 -11 0 -7 7 4 6 3 11 -3 11
-5 0 -18 3 -28 7 -17 7 -17 6 0 -11 9 -9 17 -21 17 -26 0 -4 14 -13 30 -20 17
-7 30 -16 30 -21 0 -5 3 -8 8 -7 4 1 17 -2 30 -6 30 -10 41 0 18 17 -17 13
-17 14 -1 30 9 10 21 15 26 12 5 -4 9 2 9 11 0 22 13 10 17 -17 2 -11 -1 -18
-6 -15 -5 4 -16 3 -25 0 -14 -5 -14 -8 -1 -21 8 -8 20 -11 27 -7 10 6 10 4 0
-8 -16 -20 -108 -22 -116 -3 -2 7 -17 16 -33 19 -15 4 -37 15 -48 25 -24 21
-93 61 -104 61 -5 0 -11 -11 -14 -25z m260 -21 c-3 -3 -12 -4 -19 -1 -8 3 -5
6 6 6 11 1 17 -2 13 -5z m98 -30 c-24 -24 -26 -19 -16 35 1 2 8 -2 16 -9 12
-10 12 -14 0 -26z m-111 0 c4 -10 1 -14 -6 -12 -15 5 -23 28 -10 28 5 0 13 -7
16 -16z m156 0 c0 -7 -27 -34 -35 -34 -3 0 -1 9 5 20 10 18 30 28 30 14z m365
-24 c3 -5 1 -10 -4 -10 -6 0 -11 5 -11 10 0 6 2 10 4 10 3 0 8 -4 11 -10z
m-667 -45 c-3 -3 -9 2 -12 12 -6 14 -5 15 5 6 7 -7 10 -15 7 -18z m499 19 c-3
-3 -12 -4 -19 -1 -8 3 -5 6 6 6 11 1 17 -2 13 -5z m-317 -14 c0 -5 -4 -10 -10
-10 -5 0 -10 5 -10 10 0 6 5 10 10 10 6 0 10 -4 10 -10z m-50 -26 c0 -2 -11
-4 -25 -4 -14 0 -25 4 -25 9 0 4 11 6 25 3 14 -2 25 -6 25 -8z m94 4 c-2 -3
-13 -6 -24 -5 -24 2 -18 13 9 13 11 0 18 -4 15 -8z m-119 -46 c-3 -3 -11 0
-18 7 -9 10 -8 11 6 5 10 -3 15 -9 12 -12z m520 -82 c16 -7 11 -9 -20 -9 -29
-1 -36 2 -25 9 17 11 19 11 45 0z m-375 -110 c0 -5 -8 -10 -17 -10 -15 0 -16
2 -3 10 19 12 20 12 20 0z m77 4 c-3 -3 -12 -4 -19 -1 -8 3 -5 6 6 6 11 1 17
-2 13 -5z"/>
<path d="M2567 3609 c7 -7 15 -10 18 -7 3 3 -2 9 -12 12 -14 6 -15 5 -6 -5z"/>
<path d="M2946 3543 c-7 -489 -7 -518 10 -530 10 -7 14 -13 9 -13 -5 0 2 -8
15 -17 22 -16 49 -18 224 -17 116 1 193 -2 185 -7 -9 -5 20 -9 76 -10 50 -1
123 -3 163 -5 57 -2 74 0 79 12 4 11 9 12 19 3 8 -7 14 -7 14 -2 0 6 11 21 24
35 l25 24 9 514 c5 283 8 518 5 523 -2 4 -195 7 -427 7 l-423 0 -7 -517z m824
480 c0 -5 -175 -7 -390 -7 -214 1 -390 -2 -390 -7 0 -4 174 -8 387 -8 212 0
390 -4 394 -8 7 -7 -7 -954 -14 -958 -1 -1 -179 0 -396 3 l-394 4 6 352 c4
193 7 415 7 494 l0 142 395 0 c217 0 395 -3 395 -7z m-337 -1020 c-13 -2 -35
-2 -50 0 -16 2 -5 4 22 4 28 0 40 -2 28 -4z"/>
<path d="M3206 3985 c-4 -12 -1 -16 11 -13 18 3 21 20 5 26 -5 1 -12 -4 -16
-13z"/>
<path d="M3515 3990 c-9 -15 -1 -23 21 -18 15 3 16 4 1 16 -11 9 -17 10 -22 2z"/>
<path d="M3059 3868 c0 -46 0 -114 1 -152 1 -54 -1 -66 -12 -61 -10 6 -11 5 0
-6 6 -7 11 -27 11 -44 l-1 -30 -8 30 c-6 25 -8 21 -9 -25 0 -39 2 -51 9 -40 8
12 10 11 10 -7 0 -13 -4 -23 -8 -23 -5 0 -9 -7 -9 -15 0 -8 4 -15 9 -15 5 0 6
-5 3 -10 -4 -6 -8 -22 -11 -36 -3 -19 -1 -24 8 -18 10 5 11 4 1 -7 -16 -16
-17 -33 -1 -23 7 5 8 3 3 -6 -11 -17 -12 -249 -1 -243 4 3 12 -1 17 -8 7 -11
9 -11 9 -1 0 11 53 12 283 6 155 -4 291 -10 302 -15 11 -4 -7 -5 -39 -2 -43 5
-57 3 -52 -5 5 -9 -16 -12 -78 -12 -47 0 -86 3 -86 8 0 4 -11 8 -25 8 -14 1
-25 -1 -25 -5 0 -4 -21 -9 -47 -10 -26 -1 -49 -3 -51 -6 -3 -3 92 -5 211 -5
210 0 217 1 217 20 0 11 -4 20 -8 20 -5 0 -7 33 -6 73 1 39 5 224 9 410 l6
337 -316 0 -315 0 -1 -82z m190 59 c8 -10 7 -14 -4 -14 -8 0 -12 4 -9 9 3 4 0
8 -5 8 -6 0 -11 -4 -11 -10 0 -5 -9 -10 -20 -10 -11 0 -20 -5 -20 -11 0 -6 8
-8 19 -4 15 5 19 1 17 -20 -1 -19 -5 -23 -18 -19 -14 4 -18 -1 -19 -18 -1 -23
-1 -23 -8 2 -7 24 -8 24 -14 4 -4 -12 -17 -30 -28 -40 -18 -16 -19 -16 -13 -1
9 24 -8 21 -24 -3 -11 -18 -10 -20 11 -20 13 0 29 6 36 13 11 10 11 8 0 -10
-7 -12 -19 -19 -27 -15 -9 3 -13 1 -9 -5 11 -17 50 -24 43 -8 -3 9 0 12 9 8
13 -4 13 -8 0 -26 -17 -25 -20 -47 -4 -47 5 0 8 4 5 9 -3 5 1 12 10 15 12 4
15 2 10 -9 -3 -8 -1 -15 5 -15 6 0 7 -4 4 -10 -4 -6 1 -7 11 -3 13 5 15 2 10
-15 -9 -28 3 -50 16 -31 5 9 6 3 2 -16 -9 -40 -13 -47 -26 -39 -7 5 -9 1 -5
-9 4 -11 1 -17 -8 -17 -24 0 -39 -67 -25 -111 7 -21 17 -36 22 -33 4 3 5 10 2
16 -4 6 -2 8 4 5 24 -15 38 3 34 46 -3 34 -2 40 9 30 20 -20 31 -15 18 8 -8
17 -8 24 3 35 11 11 13 7 12 -26 -2 -57 -3 -62 -13 -56 -5 3 -11 -13 -15 -36
-4 -22 -10 -46 -14 -52 -12 -20 -13 -48 -1 -62 6 -8 8 -15 3 -15 -31 -4 -40
-3 -51 5 -7 4 -13 16 -13 26 0 10 -10 25 -22 34 -20 13 -20 15 -3 9 15 -5 11
4 -17 37 -37 43 -48 82 -27 95 6 4 8 14 5 22 -3 8 -1 11 4 8 20 -12 32 7 15
25 -9 10 -15 21 -14 26 1 5 -1 17 -5 26 -4 10 -6 23 -3 30 3 7 6 3 6 -9 1 -12
5 -24 11 -28 5 -3 7 -12 3 -20 -3 -8 -1 -15 4 -15 5 0 9 18 9 40 0 21 -2 37
-4 35 -4 -4 -42 32 -42 40 0 3 9 1 20 -5 29 -16 26 5 -6 37 -14 14 -22 28 -19
31 3 4 10 0 15 -8 5 -7 16 -15 25 -16 12 -2 7 6 -13 24 -25 22 -30 32 -25 55
3 15 9 27 14 27 5 0 9 9 9 20 0 11 4 20 8 20 5 0 8 -10 8 -21 -1 -12 5 -24 12
-26 6 -3 12 0 12 7 0 6 -4 8 -10 5 -5 -3 -10 -1 -10 4 0 6 5 11 11 11 8 0 8 5
-1 15 -7 8 -21 15 -31 15 -14 0 -19 7 -19 30 l0 30 79 0 c53 0 82 -4 90 -13z
m130 -6 c6 -10 10 -9 14 3 6 15 20 15 97 0 22 -5 23 -7 7 -15 -9 -6 -21 -19
-27 -29 -9 -16 -8 -19 7 -14 17 5 17 5 0 -6 -9 -6 -15 -16 -11 -22 4 -6 -2 -6
-15 1 -18 10 -22 9 -31 -14 -11 -30 -20 -34 -13 -5 3 12 0 20 -6 20 -7 0 -9
-4 -6 -10 4 -6 -1 -7 -11 -3 -11 4 -13 8 -6 11 7 2 12 8 12 13 0 6 -4 7 -10 4
-5 -3 -10 1 -10 10 0 9 -5 13 -11 10 -6 -4 -8 -13 -5 -21 3 -7 1 -16 -3 -18
-14 -9 -7 49 8 60 11 9 12 12 1 19 -9 5 -11 4 -6 -3 4 -7 2 -12 -3 -12 -6 0
-11 5 -11 11 0 5 -4 7 -10 4 -6 -3 -7 1 -4 9 7 18 42 16 53 -3z m-74 -1 c3 -6
-1 -7 -9 -4 -18 7 -21 14 -7 14 6 0 13 -4 16 -10z m9 -53 c1 -15 -4 -33 -11
-39 -7 -6 -10 -15 -6 -22 3 -6 2 -7 -2 -3 -12 11 -15 37 -4 37 13 0 11 34 -3
49 -11 10 -9 12 6 9 13 -2 20 -12 20 -31z m200 11 c-4 -6 -1 -8 7 -6 8 3 13
11 12 17 -5 19 15 12 31 -11 18 -26 20 -38 6 -38 -5 0 -10 10 -10 21 0 18 -2
19 -15 9 -12 -10 -13 -16 -4 -26 9 -11 7 -15 -5 -20 -9 -3 -13 -11 -9 -18 4
-7 3 -8 -4 -1 -15 14 -27 98 -13 90 6 -3 7 -11 4 -17z m-249 -56 c-3 -3 -11 0
-18 7 -9 10 -8 11 6 5 10 -3 15 -9 12 -12z m323 -9 c-15 -15 -30 -24 -33 -21
-8 7 5 39 14 34 4 -3 13 -1 21 5 26 16 25 10 -2 -18z m-143 8 c3 -5 2 -12 -3
-15 -5 -3 -9 1 -9 9 0 17 3 19 12 6z m-52 -48 c-5 -11 -8 -13 -11 -5 -3 10 -7
10 -20 0 -12 -9 -12 -6 2 9 21 25 39 22 29 -4z m-93 5 c0 -9 4 -8 10 2 5 8 10
11 10 5 0 -5 -4 -15 -8 -22 -6 -9 -11 -7 -20 7 -7 12 -8 20 -2 20 5 0 10 -6
10 -12z m245 2 c3 -5 1 -10 -4 -10 -6 0 -11 5 -11 10 0 6 2 10 4 10 3 0 8 -4
11 -10z m45 -20 c0 -5 -2 -10 -4 -10 -3 0 -8 5 -11 10 -3 6 -1 10 4 10 6 0 11
-4 11 -10z m32 -22 c-5 -7 -12 -28 -15 -46 -3 -19 -9 -37 -13 -40 -3 -4 -3 10
0 32 7 39 27 79 35 71 2 -3 -1 -10 -7 -17z m-56 -3 c-3 -20 -16 -31 -16 -13 0
13 8 28 16 28 1 0 1 -7 0 -15z m-146 -10 c-7 -9 -10 -18 -7 -22 4 -3 1 -15 -4
-26 -9 -16 -13 -17 -20 -6 -5 8 -9 19 -9 24 0 6 5 3 10 -5 8 -12 10 -11 10 6
0 11 5 25 12 32 17 17 23 15 8 -3z m-63 -17 c-3 -8 -6 -5 -6 6 -1 11 2 17 5
13 3 -3 4 -12 1 -19z m69 -54 c-3 -9 1 -25 9 -37 8 -12 15 -25 15 -30 0 -12
-21 -4 -22 8 0 6 -6 18 -13 29 -11 14 -11 21 -2 32 16 18 20 17 13 -2z m151
-6 c-3 -8 -6 -5 -6 6 -1 11 2 17 5 13 3 -3 4 -12 1 -19z m13 -22 c0 -11 -19
-15 -25 -6 -3 5 1 10 9 10 9 0 16 -2 16 -4z m-27 -41 c-7 -21 -12 -19 -10 4 0
11 5 18 9 15 4 -3 5 -11 1 -19z m37 -126 c0 -6 -4 -7 -10 -4 -5 3 -10 11 -10
16 0 6 5 7 10 4 6 -3 10 -11 10 -16z m-271 -64 c0 -14 -2 -16 -6 -5 -3 8 -13
24 -22 34 -15 18 -15 18 7 5 12 -8 22 -23 21 -34z m296 18 l18 -28 -21 19
c-12 11 -22 23 -22 28 0 14 7 9 25 -19z m-96 -100 c2 -2 0 -3 -6 -3 -6 0 -21
9 -34 21 l-24 20 30 -17 c17 -10 32 -19 34 -21z m-378 -10 c13 -16 12 -17 -3
-4 -17 13 -22 21 -14 21 2 0 10 -8 17 -17z m-74 -15 c-3 -8 -6 -5 -6 6 -1 11
2 17 5 13 3 -3 4 -12 1 -19z m152 -22 c7 -8 20 -12 30 -9 11 3 21 -2 25 -12 5
-13 2 -16 -10 -11 -9 3 -26 9 -39 12 -13 3 -26 12 -29 20 -7 18 8 18 23 0z
m-147 -24 c-2 -15 2 -22 13 -22 20 0 30 -26 16 -44 -6 -7 -8 -15 -6 -18 3 -3
-5 -3 -19 -1 -22 5 -24 9 -22 59 0 31 5 53 11 51 6 -2 9 -14 7 -25z m258 -10
c0 -4 10 -13 21 -21 19 -11 21 -11 16 3 -6 14 -4 15 16 4 12 -7 26 -11 30 -10
4 1 0 -9 -9 -23 -13 -19 -22 -24 -38 -19 -50 16 -91 22 -101 15 -5 -4 -34 -9
-62 -10 -42 -2 -53 1 -53 13 0 23 35 39 49 22 6 -7 8 -16 4 -19 -3 -4 1 -7 10
-7 8 0 17 5 19 11 2 6 15 12 30 12 14 0 31 8 39 18 14 19 29 25 29 11z m182
-10 c-10 -3 -10 -7 -1 -18 20 -24 -2 -35 -51 -25 -25 5 -39 9 -32 10 7 1 10 6
7 11 -8 14 31 13 58 -1 18 -9 20 -9 10 1 -14 15 -6 43 10 33 8 -5 7 -8 -1 -11z"/>
<path d="M3128 3923 c7 -3 16 -2 19 1 4 3 -2 6 -13 5 -11 0 -14 -3 -6 -6z"/>
<path d="M3130 3900 c0 -5 5 -10 11 -10 5 0 7 5 4 10 -3 6 -8 10 -11 10 -2 0
-4 -4 -4 -10z"/>
<path d="M3165 3880 c-3 -5 1 -10 10 -10 9 0 13 5 10 10 -3 6 -8 10 -10 10 -2
0 -7 -4 -10 -10z"/>
<path d="M3130 3671 c0 -6 5 -13 10 -16 6 -3 10 1 10 9 0 9 -4 16 -10 16 -5 0
-10 -4 -10 -9z"/>
<path d="M3183 3617 c2 -27 11 -35 21 -18 3 4 -1 17 -8 27 -13 17 -14 17 -13
-9z"/>
<path d="M3390 3876 c0 -2 8 -10 18 -17 15 -13 16 -12 3 4 -13 16 -21 21 -21
13z"/>
<path d="M3430 3869 c0 -5 5 -7 10 -4 6 3 10 8 10 11 0 2 -4 4 -10 4 -5 0 -10
-5 -10 -11z"/>
<path d="M3691 3654 c0 -11 3 -14 6 -6 3 7 2 16 -1 19 -3 4 -6 -2 -5 -13z"/>
<path d="M3693 3580 c0 -25 2 -35 4 -22 2 12 2 32 0 45 -2 12 -4 2 -4 -23z"/>
<path d="M3128 3103 c23 -2 61 -2 85 0 23 2 4 4 -43 4 -47 0 -66 -2 -42 -4z"/>
<path d="M4005 4048 c-5 -15 -25 -622 -25 -758 0 -73 3 -90 15 -90 9 0 12 -6
8 -16 -4 -10 1 -17 15 -21 11 -3 23 -10 25 -17 3 -8 31 -13 77 -14 86 -3 113
-15 50 -23 -25 -3 14 -6 85 -5 81 0 99 1 48 3 -52 3 -83 8 -83 15 0 13 487 1
510 -13 10 -6 7 -7 -11 -3 -15 3 -30 1 -33 -5 -5 -8 36 -11 136 -9 96 1 128 3
98 8 l-45 7 43 1 c23 1 42 7 42 13 0 5 4 8 9 5 5 -4 12 0 15 6 5 10 8 9 13 -2
4 -10 10 -4 18 20 7 22 19 36 32 38 19 3 20 13 26 245 4 133 10 326 14 430 l6
187 -399 1 c-219 0 -463 3 -542 5 -110 4 -143 2 -147 -8z m155 -30 c0 -5 -27
-8 -61 -8 -35 0 -58 4 -54 9 6 11 115 10 115 -1z m77 -4 c-3 -3 -12 -4 -19 -1
-8 3 -5 6 6 6 11 1 17 -2 13 -5z m335 -1 c-40 -2 -103 -2 -140 0 -37 2 -4 3
73 3 77 0 107 -2 67 -3z m435 0 c-7 -7 -279 -5 -286 3 -2 2 62 4 144 4 82 0
145 -3 142 -7z m38 -3 c3 -5 1 -10 -4 -10 -6 0 -11 5 -11 10 0 6 2 10 4 10 3
0 8 -4 11 -10z m-752 -29 c3 -12 14 -18 31 -18 21 0 24 2 15 13 -10 12 22 14
204 14 188 0 216 -2 211 -15 -5 -11 2 -15 26 -15 28 0 31 2 19 16 -12 14 0 15
124 13 l137 -3 0 -25 c0 -14 -5 -129 -10 -256 -5 -126 -10 -287 -11 -357 -1
-111 -3 -128 -18 -128 -119 -3 -571 1 -759 7 l-244 6 6 281 c4 155 9 327 12
382 l6 101 123 1 c111 1 123 0 128 -17z m573 -874 c5 -4 -10 -7 -33 -6 -23 2
-40 5 -38 8 5 9 62 7 71 -2z"/>
<path d="M4410 3952 c-151 -1 -278 -6 -282 -10 -4 -4 -8 -78 -9 -164 -1 -87
-4 -158 -8 -158 -5 0 2 -310 7 -317 6 -9 22 -1 16 8 -4 8 108 9 405 4 l411 -8
-6 31 c-4 17 -3 39 1 49 4 10 7 70 7 133 0 65 4 120 10 127 9 11 2 281 -7 291
-2 2 -57 5 -122 7 -65 1 -125 4 -133 6 -8 2 -139 3 -290 1z m300 -546 c0 -3
-4 -8 -10 -11 -5 -3 -10 -1 -10 4 0 6 5 11 10 11 6 0 10 -2 10 -4z"/>
<path d="M4103 3785 c0 -22 2 -30 4 -17 2 12 2 30 0 40 -3 9 -5 -1 -4 -23z"/>
<path d="M4208 3303 c7 -3 16 -2 19 1 4 3 -2 6 -13 5 -11 0 -14 -3 -6 -6z"/>
<path d="M4460 3293 c0 -9 -40 -11 -152 -8 -124 3 -138 2 -73 -5 137 -14 707
-12 716 2 9 15 1 27 -9 13 -4 -6 -104 -12 -236 -14 -185 -3 -230 -1 -237 10
-6 9 -9 10 -9 2z"/>
<path d="M4108 3283 c7 -3 16 -2 19 1 4 3 -2 6 -13 5 -11 0 -14 -3 -6 -6z"/>
<path d="M1873 3283 c9 -2 25 -2 35 0 9 3 1 5 -18 5 -19 0 -27 -2 -17 -5z"/>
<path d="M2048 3273 c50 -2 134 -2 185 0 50 1 9 3 -93 3 -102 0 -143 -2 -92
-3z"/>
<path d="M4476 3098 c3 -5 24 -8 46 -8 23 0 38 3 34 7 -10 10 -86 11 -80 1z"/>
<path d="M1023 2983 c9 -2 23 -2 30 0 6 3 -1 5 -18 5 -16 0 -22 -2 -12 -5z"/>
<path d="M3488 2923 c7 -3 16 -2 19 1 4 3 -2 6 -13 5 -11 0 -14 -3 -6 -6z"/>
<path d="M2 1255 l2 -36 293 2 c160 0 296 -2 301 -4 4 -3 33 -3 63 1 30 4 68
5 84 1 50 -11 132 -10 115 1 -12 8 -10 10 8 10 14 0 21 -4 16 -11 -4 -8 29
-10 114 -7 66 1 116 0 110 -3 -11 -7 152 -4 237 4 44 4 49 4 20 -2 -34 -7 -27
-8 40 -9 54 0 72 3 55 8 -14 5 42 8 135 7 l160 -1 -115 -6 c-63 -4 58 -6 270
-5 212 2 342 0 290 -4 -52 -3 67 -6 265 -6 511 0 1389 -16 1395 -25 3 -4 30
-10 60 -13 30 -2 43 -2 28 0 -16 2 -28 8 -28 12 0 11 62 1 79 -13 11 -8 13 -8
7 2 -6 9 33 12 179 12 138 0 184 -3 179 -11 -5 -9 7 -10 47 -4 72 9 212 6 224
-6 5 -5 27 -8 50 -7 l40 1 -45 8 c-25 4 81 6 235 3 154 -2 350 -4 435 -5 92
-1 145 -4 130 -9 -15 -5 7 -7 57 -4 l82 3 4 -52 c3 -42 4 -37 5 24 l2 76 -212
7 c-225 7 -604 14 -2383 46 -605 10 -1188 22 -1295 24 -107 3 -400 8 -650 11
-250 3 -598 8 -773 11 l-318 6 3 -37z m935 -31 c-3 -3 -12 -4 -19 -1 -8 3 -5
6 6 6 11 1 17 -2 13 -5z m56 -1 c-7 -2 -21 -2 -30 0 -10 3 -4 5 12 5 17 0 24
-2 18 -5z"/>
<path d="M2388 1183 c12 -2 30 -2 40 0 9 3 -1 5 -23 4 -22 0 -30 -2 -17 -4z"/>
<path d="M2568 1183 c7 -3 16 -2 19 1 4 3 -2 6 -13 5 -11 0 -14 -3 -6 -6z"/>
<path d="M4168 1153 c7 -3 16 -2 19 1 4 3 -2 6 -13 5 -11 0 -14 -3 -6 -6z"/>
<path d="M4873 1143 c9 -2 25 -2 35 0 9 3 1 5 -18 5 -19 0 -27 -2 -17 -5z"/>
<path d="M4945 1140 c27 -12 43 -12 25 0 -8 5 -22 9 -30 9 -10 0 -8 -3 5 -9z"/>
<path d="M5393 1133 c9 -2 25 -2 35 0 9 3 1 5 -18 5 -19 0 -27 -2 -17 -5z"/>
<path d="M5624 725 c0 -60 1 -84 3 -52 2 32 2 81 0 110 -2 29 -3 3 -3 -58z"/>
</g>
</svg>
